<?xml version="1.0" encoding="UTF-8"?>
<svg id="Layer_1" xmlns="http://www.w3.org/2000/svg" version="1.1" viewBox="0 0 1920 1080">
  <!-- Generator: Adobe Illustrator 30.1.0, SVG Export Plug-In . SVG Version: 2.1.1 Build 136)  -->
  <defs>
    <style>
      .st0 {
        fill: none;
      }
    </style>
  </defs>
  <path class="st0" d="M1503.09,558.31l-.36-13.68-.8-24.07-2.36-111.22c-.49-22.83-2.09-45.07-4.86-67.64-1.93-15.75-6.95-30.02-16.2-42.98-9.13-12.8-20.35-23.79-33.56-32.58l-35.76-23.77c-43.76-29.1-90.39-53.61-137.38-77.34l-65.13-32.89c-13.82-6.98-33.19-11.59-47.83-13.13h-14.87c-.66.84-1.79.32-2.9.44-12.42,1.3-33.39,6.35-44,12.8l-148.27,90.13-17.67-17.77c-9.06-9.11-18.69-16.94-29.14-24.47l-34.87-23.15c-13.63-9.04-28.99-14.71-44.99-17.85-13.76-2.71-26.93-1.8-40.33,1.93l-59.38,16.52-92.88,25.64c-25.79,7.12-50.95,15.19-76.07,24.11-10.24,3.63-19.53,8.05-28.72,13.65-25.4,15.48-40.77,38.19-49.84,66.3-7.04,21.82-12.69,43.8-17.67,66.29l-24.24,109.55-14.17,58.72c-1.02,4.23-.86,8.2-2.22,12.24v13.92c1.09,1.08.67,2.73.89,4.38,1.54,11.27,3.98,22.01,8.87,32.44,5.79,12.36,12.25,25.21,22.49,34.55l39.41,35.97,57.76,57.78,17.22,17.15c-29.01.78-56.65,10.86-77.27,30.57-22.15,20.62-35.05,56.86-22.05,85.56l-22.08,36.84c-8.02,13.4-3.73,31.01,9.27,39.6l31.76,20.99c5.76,3.8,12.32,5.59,18.71,8.18,13.47,5.46,27.47,8.12,41.68,9.15,5.99-.08,11.85.21,18.05-.21,21.21-1.4,41.44-7.58,59.08-19.66l17.48,11.64c5.46,3.64,11.52,5.27,18.18,5.12l53.69-.25c14.97-.07,26.68-11.82,28.67-26.55l24.12,15.95c6.09,4.03,12.47,6.7,19.4,8.99,15.22,4.85,32.69,5.61,48.54,4.74,18.71-1.03,36.64-5.79,52.95-15.37l12.06,7.91c4.4,2.89,9.41,4.44,14.88,4.43l76.21-.02c18.81-.01,36.63-4.85,53.33-13.75l13.19,8.67c5.1,3.36,10.74,5.23,17.02,5.23l55.1-.06c12.07-.01,22.36-7.22,27.33-18.41,19.54,13.93,36.19,19.46,59.75,21.42,2.41.14,4.8.23,7.18.27h.11c1.57.03,3.14.03,4.71,0h.07c25.18-.42,48.54-7.09,70.63-20.54l5.51,3.47c4.82,3.03,10.1,4.58,15.47,6.74,13.96,5.64,28.4,9.21,43.52,9.99,1.78.09,3.56.18,5.32.26,4.33.19,8.61.27,12.81-.01,26.32-1.74,52.56-10.97,72.1-29.61,17.63-16.82,27.47-39.98,26.94-64.41-.24-11.15-3.48-21.37-9.67-30.86l16.49-27.84c8.02-13.54,4.51-30.74-8.17-39.99l-34.08-22.56c-16.01-10.59-34.77-15.01-54.18-15.65l52.23-34.61c9.22-6.11,17.71-12.35,26.06-19.56,10.84-9.37,19.54-20.63,26.37-33.22,6.26-11.53,11.61-27.95,11.61-40.63v-24.47c0-6.41-.08-12.88-.25-19.45ZM545.81,810.59c.52,1.16,2.07,2.3,3.84,2.72l23.63,5.53c13.43,3.14,25.68,13.64,26.09,28.65.49,18.11-7.76,34.93-21.94,46.13-26.18,20.68-65.05,22.15-95.35,10.36-4.84-1.88-9.23-3.72-14.17-5.98l24.67-40.87c4.81,4.28,8.98,7.85,14.28,10.41,8.67,4.19,18.15,5.84,27.48,3.58,4.51-1.1,7.78-4.68,8-9.24.13-2.8-1.43-4.96-4.2-5.53l-24.64-5.05c-6.36-1.3-11.89-4.44-16.4-8.99-6.67-6.74-9.31-15.72-8.14-25.13,3.21-25.57,22.66-43.18,45.84-51.69,10.88-3.86,21.84-5.26,33.45-5.2,15.05.07,29.42,4.01,42.27,12.6l-22.03,37.02c-6.14-4.47-12.23-7.79-19.21-9.63-5.46-1.35-10.97-1.77-16.33-.32-5.07,1.27-9.28,5.87-7.14,10.63ZM728.33,810.58l-30.48-1.04-19.28,98.43-53.96.04,19.34-98.42-30.79.96,9.18-46.96h115.15l-9.16,46.99ZM740.35,628.81c-3.56-6.95-8.1-13.05-13.61-18.6l-15.05-15.16c-7.46-7.51-17.07-18.09-18.55-28.87-.8-5.9,3-10.9,8.98-11.53,19.4-2.05,43.38,14.77,57.33,27.2,10.63,9.48,20.55,19.23,29.92,29.92,5.79,6.61,10.55,13.5,14.15,21.44,7.11,15.66,2.64,33.73-10.92,44.17-14.45,11.12-34.52,15.63-52.66,15.28-30.02-.58-58.18-12.05-81.9-30.12-15.43-11.75-29.7-24.37-43.57-37.87-7.06-6.87-15.4-17.22-16.39-27.19-.52-5.19,2.51-9.55,7.77-10.63,10.77-2.23,26.21,4.38,35.21,9.73,7.03,4.17,13.29,8.81,19.53,14.11l19.7,16.71c13.12,11.14,39.27,29.36,56.78,20.99,8.05-3.84,6.68-12.93,3.28-19.58ZM807.08,910.2c-13.2,1.71-26.21,1.67-39.26-.85-25.37-4.9-41.34-23.09-37.23-49.82l18.83-95.94h54.36s-16.82,85.64-16.82,85.64c-.52,3.38-.58,6.32.37,9.39,3.1,9.91,18.08,8.42,23.8,3.35,3-2.78,4.33-6.33,5.66-10.33l17.35-88.08,54.55.08-18.2,92.34c-7.6,31.09-32.36,50.19-63.41,54.22ZM1038.55,844.04c-5.21,20.73-17.61,37.75-35.35,49.22-13.26,8.58-27.96,13.96-43.94,14.6l-56.08.11h-21.94s28.35-144.39,28.35-144.39l64.98.12c9.62.02,18.5,1.81,27.55,4.36,36.18,11.4,45.28,40.81,36.43,75.98ZM1094.82,908.06l-54.78-.08,28.39-144.27,9.43-.13,41.04,22.13-24.08,122.35ZM1252.94,892.67c-24.74,17.13-56.11,22.73-85.37,15.77-21.36-5.08-39.2-19.84-44.22-41.79-5.81-25.38,3.62-53.76,20.52-73.07,26.74,5.21,51.56-.82,75.12-13.04l29.6-16.5c24.29,6.62,41.92,25.85,43.03,51.79,1.31,30.47-13.58,59.47-38.68,76.84ZM1427.85,772.94l-21.97,36.95c-10.31-7.68-25.06-13.96-37.48-9.27-2.86,1.21-5.14,3.34-5.69,6.44-.52,2.87.93,5.37,3.8,6.05l24.71,5.87c13.43,3.19,25.26,14.02,25.51,29,.32,18.29-8.18,35.06-22.65,46.19-25.78,19.81-62.63,21.34-92.47,10.64-5.69-2.04-10.84-4.29-16.35-6.83l24.6-40.81c4.23,3.49,7.72,6.8,12.24,9.27,9.2,5.02,19.59,7.2,29.77,4.64,4.27-1.07,7.38-4.47,7.77-8.67.29-3.14-1.27-5.48-4.31-6.1l-23.55-4.79c-14.2-2.89-25.93-14.55-25.69-29.52.51-32.18,29.65-54.7,59.1-59.94,21.23-4.08,44.51-1.69,62.66,10.88ZM1436.99,605.44c-6.46,13.23-15.83,24.47-27.66,33.27-31.36,23.34-90.04,60.94-124.15,80.7l-71.72,41.54c-14.13,8.18-29.55,13.36-45.99,14.35-11.88.72-24.8.08-35.5-5.66l-150.33-80.59c-10.13,10.2-19.96,17.06-32.71,22.69l-.68.3-.74.34c-15.27,7.15-31.5,11.53-47.63,16.52-.82-.28-1.15-.21-2.03-.21h-81.07c-1.2,0-2.22.04-3.43-.05-.71-.03-1.33-.12-.57-.51l52.84-15.17,53.72-16.69c4.45-1.39,8.49-3.5,11.88-6.32,8.69-7.23,8.72-19.53.37-27.02-13.45-12.06-24.56-12.3-35.37-29.78-2.54-4.09-4.88-8.03-7.88-11.87-8.35-10.71-17.68-20.15-27.82-29.26l-58.86-52.87-29.6-28.44c-5.57-5.34-12.4-8.28-19.95-10.61-13.9-4.3-27.79-5.04-41.88-1.91-24.23,5.37-47.81,12-71.5,19.6l-68.25,21.92-71.39,22.72c-4.63,1.47-8,8.46-8.47,12.8-.8,7.21,2.41,14.26,7.51,18.87l30.82,27.79,50.18,50.02,29.98,30.05,28.06,26.42c-11.84.83-20.67-.28-32.16.74l-42.74-42.18-55.45-55.39-36.68-33.48c-15.29-13.96-27.31-47.32-21.8-70.27l13.84-57.59,24.49-110.75c4.84-21.84,10.33-43.17,17.24-64.32,6.69-20.46,17.95-37.22,36.39-48.5,7.44-4.55,14.92-8.1,23.23-11.06,24.72-8.78,49.54-16.69,74.94-23.7l91.83-25.34,59.99-16.66c8.73-2.43,17-3.08,26.01-1.34,14.88,2.87,28.76,8.93,40.95,17.98,8.45,6.28,16.11,12.69,23.52,20.14l34.21,34.37c7.89,7.93,16.07,15.4,25.59,21.47l171.81-104.46c4.52-2.74,9.29-3.7,14.18-5.2,13.92-4.28,28.25-4.94,42.56-1.87,9.35,2.01,18.01,4.75,26.61,9.11l63.27,32.1c45.54,23.09,89.42,48.77,133.23,74.88,17.89,10.66,37.39,29.64,41.38,50.73,3.93,20.79,5.62,54.85,6.09,76.52l2.49,114.77,1.61,63.84c.29,11.54-1.76,22.18-6.81,32.52Z"/>
  <path class="st0" d="M1377.64,961.18c-4.2.28-8.48.2-12.81.01h12.81Z"/>
  <rect class="st0" x="1503.34" y="577.77" width=".48" height="24.47"/>
  <path class="st0" d="M1422.52,512.94l-5.58-101.64c-1.08-19.72-1.58-38.9-.56-58.45-1.5-10.23-6.4-20.52-18.1-20.94-4.4-.11-8.35.76-12.43,2.65l-185.83,113.41c-16.47,13.09-27.27,31.59-29.75,52.56l5.68,215.78c.16,5.95,1.33,11.14,4.63,15.87,5.3,7.83,15.21,9.08,23.61,5.52l60.92-36.82,61.43-35.77c20.43-11.89,39.88-24.23,59.1-37.46,20.99-14.46,34.06-33.06,36.2-59,1.55-18.75,1.71-36.91.68-55.71ZM1373.5,441.99c-.25,2.24-.8,4.28-1.9,6.48l-55,110.53c-4.9,9.85-8.39,19.8-10.16,30.64l-2.62,16.07c-.84,5.12-2.13,9.88-3.99,14.71-2.93,7.63-8.49,13.43-15.93,16.73-3.84,1.71-7.76,2.97-11.97,2.69-9.12-.61-9.71-10.35-8.83-17.47l2.83-22.98c1.13-9.12.72-17.81-1.85-26.98l-22.14-79.14c-1.84-6.59-2.32-14.76,4.42-18.46,7.65-4.21,15.94-6.73,24.71-7.32,9.68-.66,14.28,7.74,16.29,15.88l6.62,26.88c.46,1.88,2.2,6.29,3.9,6.58,2.56.43,5.72-5.38,6.81-7.71l17.14-36.59c5.53-11.82,10.87-21.73,23.15-27.17,3.66-1.62,29.49-12.08,28.52-3.37Z"/>
  <path class="st0" d="M1153.29,635.35l-4.7-116.35c-.4-9.93-1.61-19.22-4.02-28.78-2.99-11.88-9.35-22.25-18.44-30.39-6.25-5.61-12.51-10.56-19.95-14.66l-66.2-36.5-55.89-29.4-58.34-31.72c-3.67-2-7.54-2.35-11.59-2.69-14.34-1.2-20.55,13.89-19.87,25.61l1.88,32.62.35,53.27-.23,60.94c-.15,21.7.94,42.8,3.92,64.29,2.96,21.35,14.48,40.47,31.61,53.4l188.66,102.35c4.47,1.93,8.61,3.38,13.4,3.54,13.44,1.2,19.64-12.89,19.9-24.01.66-27.19.61-54.18-.49-81.52ZM1080.79,543.44c-.53,2.68-2.9,4.21-5.67,4.3-10.78.33-25.68-10.3-33.04-17.77l-11.67-11.83c-4-4.06-8.33-7.19-13.49-9.6-11.16-5.2-24.03-.9-29.26,10.47-7.87,17.07-4.65,37.52,8.09,51.7,15.75,17.53,37.68,6.86,60.22,16.86,5.02,2.22,9.28,5.18,12.37,9.64,3.09,4.48,3.49,10.03.16,14.66-12.41,17.26-35.46,19.97-54.99,13.81-28.01-8.83-50.64-29.34-62.81-56.06-9.19-20.18-12.09-42.48-7.7-64.24,1.8-8.91,4.76-16.89,9.6-24.45,13.5-21.12,38.52-25.9,61.18-18.15,32.86,11.24,57.85,38.41,66.67,71.95.79,3,.94,5.74.34,8.71Z"/>
  <path class="st0" d="M786.57,196.18c-5.61-.4-10.82.04-16.3,1.59l-72.09,20.41-62.95,19.53-71.76,21.79c-17.22,8.47-34.63,27.02-39.26,45.96-6.34,19.19-11.25,38.43-15.56,58.27l-22.36,102.8-12.29,50.21c-.16,5.01.74,9.63,3.03,14,5,9.56,18.29,8.59,27.81,6.33,21.76-5.17,42.7-11.09,63.86-17.82l81.5-25.93c19-6.04,37.75-11.42,57.01-16.41,21.38-8.76,35.43-23.97,43.2-45.71,6.17-17.97,10.9-36.01,15-54.65l20.76-94.25c4.44-20.18,9.02-39.87,14.8-59.63,1.28-10.72-1.29-25.55-14.4-26.49ZM695.51,431.62c-3.88,10.81-17.12,18.71-27.51,22.31-10.07,3.49-19.98,6.11-30.49,8.3l-44.09,9.18c-4.88,1.02-9.58,1.36-14.44.98-3.7-.29-6.73-3.02-7.1-6.69-.36-3.71-.3-7.22.57-10.93l12.64-53.65,22.61-93.74c2.97-12.31,8.03-22.22,19.05-28.66,9.24-5.41,19.49-8.21,30.19-7.76,6.64.27,11.41,4.86,11.84,11.42.38,5.7-.43,10.97-1.76,16.69l-22.14,95.64c-.82,3.56-.78,6.79-.45,10.28.53,5.54,4.65,9.13,10.09,9.81,12.68,1.61,23.57-2.54,35.95,4.2,4.64,2.53,6.87,7.51,5.04,12.62Z"/>
  <path class="st0" d="M1378.95,288.02c-6.3-7.43-13.96-10.63-22.33-15.19l-61.7-33.7-55.46-29.49-55.81-30.54c-22.45-9.27-45.35-8.87-67.07,2.24-14.59,7.46-28.52,15.47-42.37,24.38l-86.32,55.53c-16.52,10.63-33.09,20.63-50.36,29.8-3.39,2.69-6.14,5.38-9.01,8.45-7.97,8.51-2.71,22.31,5.37,28.74,17.78,8.85,35.09,17.94,52.44,27.77l71.3,40.41c18.86,10.69,37.71,20.68,57.04,30.25,5.9,2.92,11.29,5.31,17.54,7.39,18.97,6.32,39.39,5.08,57.52-4.13l47.4-29.58,85.97-50.77c13.3-7.86,42.67-26.31,53.65-35.63,7.87-6.68,8.87-18.08,2.2-25.93ZM1259.72,251.19l-75.1,44.16c-5.4,3.18-7.87,8.83-6.87,14.95.73,4.47,1.94,8.56,3.31,12.99l15.78,50.98c.91,2.91,1.08,5.43.67,8.02-.41,2.62-2.43,4.36-5.04,4.6-9.2.84-26.33-3.14-35.21-6.14-11.34-3.81-16.51-11.77-19.77-23l-10.68-36.76c-.74-2.53-3.12-9.25-5.65-9.56-2.69-.33-6.01,4.98-7.28,7.4l-14.19,26.95c-4.73,9.01-11.32,17.37-22.41,17.55-9.9.17-19.47-1.79-28.47-5.67-3.53-1.52-5.08-5.13-4.13-8.77.82-3.14,2.11-5.63,3.64-8.59l62.75-120.75c2.18-4.19,6.82-6.46,11.36-6.74,9.89-.62,19.35,1.58,28.43,5.29,4.78,1.96,7.38,6.67,6.57,11.81-.59,3.77-1.94,7.21-3.66,10.65l-13.95,27.84c-1.03,2.05-3.13,6.8-2.38,8.59.77,1.82,6.99-1.61,8.51-2.52l59.07-35.22c9.03-5.39,19.28-6.66,29.47-4.97,5.22.86,31.07,4.66,32.2,9.38.7,2.95-4.39,6.02-6.97,7.53Z"/>
  <path class="st0" d="M919.64,275.2l-20.49,17.31-13.58,13.89c-4.61,6.65-8.02,13.81-9.72,21.82-1.33,6.26-2.67,12.3-3.29,18.77-1.21,12.57-1.87,24.71-1.39,37.42l2.48,65.23,3.55,64.07c1.09,19.87,1.29,38.76.68,58.24-.08,2.42-.43,4.65-1.96,6.33l-89.37-84.88c-17.91-17.01-16.57-51.95-11.46-74l15.32-66.17,14.1-55.91,18.34-74.43c1.73-7.02,11.89-16.5,20.77-13.55,3.05,1.01,7.36,1.02,9.94,3.45l66.08,62.41Z"/>
  <path class="st0" d="M960.18,862.73c-5.29,1.17-10.36,1.38-16.01.88l10.96-55.65c11.24-.97,26.02.68,29.71,13.61,5.24,18.39-6.24,37.09-24.66,41.16Z"/>
  <path class="st0" d="M1228.21,850.83c-7.98,10.92-21.06,15.87-34.08,13.12-8.01-1.7-13.85-7.49-15.59-15.54-1.84-8.5.28-16.79,4.52-24.26,7.34-12.94,21.62-19.71,36.17-16.47,8.86,1.98,15.23,8.87,16.09,18.01.85,9.03-1.61,17.62-7.11,25.14Z"/>
</svg>